<svg width="16" height="18" viewBox="0 0 16 18" fill="none" xmlns="http://www.w3.org/2000/svg">
<path d="M5.96094 1.61719V2.67188H10.1797V1.61719C10.1797 1.0348 10.651 0.5625 11.2344 0.5625C11.8177 0.5625 12.2891 1.0348 12.2891 1.61719V2.67188H13.8711C14.7445 2.67188 15.4531 3.38016 15.4531 4.25391V5.83594H0.6875V4.25391C0.6875 3.38016 1.39579 2.67188 2.26953 2.67188H3.85156V1.61719C3.85156 1.0348 4.32288 0.5625 4.90625 0.5625C5.48962 0.5625 5.96094 1.0348 5.96094 1.61719ZM0.6875 6.89062H15.4531V15.8555C15.4531 16.7289 14.7445 17.4375 13.8711 17.4375H2.26953C1.39579 17.4375 0.6875 16.7289 0.6875 15.8555V6.89062ZM3.32422 9C3.03286 9 2.79688 9.2373 2.79688 9.52734V12.6914C2.79688 12.9814 3.03286 13.2188 3.32422 13.2188H6.48828C6.77832 13.2188 7.01562 12.9814 7.01562 12.6914V9.52734C7.01562 9.2373 6.77832 9 6.48828 9H3.32422Z" fill="#3A536B"/>
</svg>
