<svg width="153" height="98" viewBox="0 0 153 98" fill="none" xmlns="http://www.w3.org/2000/svg">
<g clip-path="url(#clip0_406_119)">
<path d="M73.2352 18.7646L73.2353 18.7647C73.919 19.4483 73.919 20.5516 73.2353 21.2353L73.2353 21.2353L58.2376 36.2353C57.554 36.9189 56.4461 36.9189 55.7626 36.2353C55.0791 35.5517 55.0791 34.4483 55.7626 33.7646L55.7626 33.7646L68.9914 20.5302L69.5214 19.9999L68.9913 19.4697L55.7626 6.23771C55.7626 6.2377 55.7626 6.23769 55.7626 6.23769C55.0792 5.55408 55.0791 4.44622 55.7623 3.76252C55.7624 3.76249 55.7624 3.76245 55.7624 3.76242C55.7625 3.76237 55.7625 3.76232 55.7626 3.76226C56.4461 3.07945 57.5541 3.07945 58.2378 3.76248C58.2378 3.76251 58.2378 3.76253 58.2379 3.76256L73.2352 18.7646ZM97 33.25C97.9686 33.25 98.75 34.0314 98.75 35C98.75 35.9686 97.9686 36.75 97 36.75H74.5C73.5314 36.75 72.75 35.9686 72.75 35C72.75 34.0314 73.5314 33.25 74.5 33.25H97Z" stroke="#3294F8" stroke-width="1.5"/>
</g>
<g filter="url(#filter0_d_406_119)">
<path d="M17.4844 78.2695V85.7578C16.375 86.7734 14.1289 87.2812 10.7461 87.2812C10.082 87.2812 9.49609 87.2539 8.98828 87.1992C8.48828 87.1445 8.02734 87.0742 7.60547 86.9883C7.19141 86.9023 6.83594 86.7578 6.53906 86.5547C6.24219 86.3438 5.98047 86.1328 5.75391 85.9219C5.52734 85.7109 5.34375 85.4062 5.20312 85.0078C5.0625 84.6016 4.94531 84.2109 4.85156 83.8359C4.76562 83.4609 4.69922 82.957 4.65234 82.3242C4.61328 81.6914 4.58594 81.0859 4.57031 80.5078C4.55469 79.9297 4.54688 79.1875 4.54688 78.2812C4.54688 77.5078 4.55078 76.8477 4.55859 76.3008C4.57422 75.7539 4.60156 75.1953 4.64062 74.625C4.6875 74.0547 4.74609 73.582 4.81641 73.207C4.89453 72.8242 4.99609 72.4414 5.12109 72.0586C5.25391 71.668 5.40625 71.3555 5.57812 71.1211C5.75 70.8789 5.96484 70.6406 6.22266 70.4062C6.48047 70.1719 6.76562 69.9922 7.07812 69.8672C7.39844 69.7422 7.76953 69.6289 8.19141 69.5273C8.61328 69.4258 9.07422 69.3594 9.57422 69.3281C10.0742 69.2891 10.6406 69.2695 11.2734 69.2695C11.3125 69.2695 11.3711 69.2695 11.4492 69.2695C11.9961 69.2695 12.4102 69.2734 12.6914 69.2812C12.9727 69.2891 13.3516 69.3203 13.8281 69.375C14.3125 69.4219 14.6836 69.5 14.9414 69.6094C15.1992 69.7109 15.4961 69.8672 15.832 70.0781C16.168 70.2812 16.418 70.5352 16.582 70.8398C16.7461 71.1367 16.8906 71.5156 17.0156 71.9766C17.1406 72.4375 17.2031 72.9688 17.2031 73.5703C17.2031 73.7109 17.1953 73.9062 17.1797 74.1562L15.082 74.5547L14.9531 72.2461C14.9375 71.7461 14.6523 71.4258 14.0977 71.2852C13.543 71.1367 12.4922 71.0625 10.9453 71.0625C9.89062 71.0625 9.09375 71.1289 8.55469 71.2617C8.01562 71.3867 7.64062 71.582 7.42969 71.8477C7.21875 72.1133 7.08984 72.5078 7.04297 73.0312C6.97266 74.6328 6.9375 76.2734 6.9375 77.9531C6.9375 79.6406 6.97266 81.2812 7.04297 82.875C7.08203 83.7188 7.14844 84.2656 7.24219 84.5156C7.39062 84.8984 7.73047 85.1562 8.26172 85.2891C8.76172 85.4141 9.63281 85.4766 10.875 85.4766C13.5469 85.4766 15.0273 85.2969 15.3164 84.9375C15.3086 84.1328 15.3047 82.5 15.3047 80.0391H12.3516L12.1523 78.2695H17.4844ZM23.4258 87H21.0469V69.5391H23.4258V87ZM36.8906 71.3438H32.332V87H29.9531V71.3438H25.4883V69.5391H36.8906V71.3438ZM51.4453 87H49.0664V78.9844H41.2617V87H38.8828V69.5391H41.2617V77.1328H49.0664V69.5391H51.4453V87ZM68.3555 69.5391V80.4727C68.3555 81.4102 68.3125 82.2148 68.2266 82.8867C68.1484 83.5586 68.0039 84.1562 67.793 84.6797C67.582 85.1953 67.3164 85.6172 66.9961 85.9453C66.6836 86.2656 66.2695 86.5312 65.7539 86.7422C65.2461 86.9453 64.6758 87.0859 64.043 87.1641C63.4102 87.2422 62.6445 87.2812 61.7461 87.2812C60.8789 87.2812 60.1406 87.2461 59.5312 87.1758C58.9219 87.1055 58.3594 86.9766 57.8438 86.7891C57.3281 86.5938 56.9102 86.3398 56.5898 86.0273C56.2773 85.707 56.0078 85.293 55.7812 84.7852C55.5547 84.2695 55.3945 83.6641 55.3008 82.9688C55.2148 82.2734 55.1719 81.4414 55.1719 80.4727V69.5391H57.5508V80.7773C57.5508 81.4258 57.5508 81.8945 57.5508 82.1836C57.5586 82.4727 57.582 82.8281 57.6211 83.25C57.6602 83.6641 57.7109 83.9492 57.7734 84.1055C57.8359 84.2539 57.9375 84.4414 58.0781 84.668C58.2266 84.8945 58.3906 85.0391 58.5703 85.1016C58.7578 85.1562 59.0117 85.2266 59.332 85.3125C59.6523 85.3984 59.9961 85.4492 60.3633 85.4648C60.7383 85.4727 61.2031 85.4766 61.7578 85.4766C62.4141 85.4766 62.9609 85.457 63.3984 85.418C63.8438 85.3789 64.2305 85.3008 64.5586 85.1836C64.8867 85.0664 65.1367 84.9336 65.3086 84.7852C65.4883 84.6289 65.6289 84.4023 65.7305 84.1055C65.8398 83.8086 65.9102 83.5 65.9414 83.1797C65.9727 82.8594 65.9883 82.4336 65.9883 81.9023L65.9766 69.5391H68.3555ZM84.3984 81.9727C84.3906 82.4648 84.3711 82.8984 84.3398 83.2734C84.3164 83.6406 84.2734 83.9883 84.2109 84.3164C84.1484 84.6445 84.082 84.9219 84.0117 85.1484C83.9414 85.375 83.8281 85.5898 83.6719 85.793C83.5234 85.9883 83.3789 86.1484 83.2383 86.2734C83.0977 86.3906 82.8945 86.5 82.6289 86.6016C82.3711 86.6953 82.1211 86.7656 81.8789 86.8125C81.6367 86.8594 81.3125 86.8984 80.9062 86.9297C80.5078 86.9609 80.1211 86.9805 79.7461 86.9883C79.3789 86.9961 78.9141 87 78.3516 87H72.0938V69.5391H78.7266C79.6094 69.5391 80.3398 69.5859 80.918 69.6797C81.5039 69.7656 82.0195 69.9258 82.4648 70.1602C82.918 70.3945 83.2461 70.7266 83.4492 71.1562C83.6523 71.5859 83.7578 72.1328 83.7656 72.7969L83.7773 74.0625C83.7773 74.5938 83.7578 75.0273 83.7188 75.3633C83.6797 75.6992 83.6094 76.0039 83.5078 76.2773C83.4141 76.5508 83.2695 76.7656 83.0742 76.9219C82.8789 77.0781 82.6406 77.2109 82.3594 77.3203C82.0859 77.4219 81.7305 77.5117 81.293 77.5898C81.8242 77.6445 82.2812 77.7617 82.6641 77.9414C83.0469 78.1211 83.3477 78.3359 83.5664 78.5859C83.793 78.8359 83.9688 79.1523 84.0938 79.5352C84.2188 79.918 84.3008 80.293 84.3398 80.6602C84.3789 81.0273 84.3984 81.4648 84.3984 81.9727ZM81.457 73.5586C81.457 73.543 81.457 73.5195 81.457 73.4883C81.457 73.1602 81.457 72.9297 81.457 72.7969C81.457 72.6562 81.4336 72.4883 81.3867 72.293C81.3477 72.0898 81.3047 71.957 81.2578 71.8945C81.2188 71.832 81.1211 71.75 80.9648 71.6484C80.8164 71.5391 80.668 71.4766 80.5195 71.4609C80.3711 71.4375 80.1367 71.4102 79.8164 71.3789C79.5039 71.3398 79.1914 71.3203 78.8789 71.3203C78.5664 71.3203 78.1406 71.3203 77.6016 71.3203H74.4492V76.9219H76.8047C77.8281 76.9219 78.6562 76.8945 79.2891 76.8398C79.9219 76.7773 80.3906 76.6758 80.6953 76.5352C81.0078 76.3867 81.2109 76.2305 81.3047 76.0664C81.4062 75.9023 81.457 75.6836 81.457 75.4102V73.5586ZM82.0781 81.4102C82.0625 80.4805 82.0273 79.8945 81.9727 79.6523C81.8633 79.2227 81.5938 78.9297 81.1641 78.7734C80.6328 78.5703 79.4453 78.4648 77.6016 78.457C77.4766 78.457 77.3398 78.457 77.1914 78.457H74.4492V85.2305H78.9258C79.832 85.2305 80.5156 85.1562 80.9766 85.0078C81.4375 84.8516 81.7422 84.6211 81.8906 84.3164C82.0391 84.0117 82.1094 83.5625 82.1016 82.9688L82.0781 81.4102ZM104.555 81.9727C104.547 82.4648 104.527 82.8984 104.496 83.2734C104.473 83.6406 104.43 83.9883 104.367 84.3164C104.305 84.6445 104.238 84.9219 104.168 85.1484C104.098 85.375 103.984 85.5898 103.828 85.793C103.68 85.9883 103.535 86.1484 103.395 86.2734C103.254 86.3906 103.051 86.5 102.785 86.6016C102.527 86.6953 102.277 86.7656 102.035 86.8125C101.793 86.8594 101.469 86.8984 101.062 86.9297C100.664 86.9609 100.277 86.9805 99.9023 86.9883C99.5352 86.9961 99.0703 87 98.5078 87H92.25V69.5391H98.8828C99.7656 69.5391 100.496 69.5859 101.074 69.6797C101.66 69.7656 102.176 69.9258 102.621 70.1602C103.074 70.3945 103.402 70.7266 103.605 71.1562C103.809 71.5859 103.914 72.1328 103.922 72.7969L103.934 74.0625C103.934 74.5938 103.914 75.0273 103.875 75.3633C103.836 75.6992 103.766 76.0039 103.664 76.2773C103.57 76.5508 103.426 76.7656 103.23 76.9219C103.035 77.0781 102.797 77.2109 102.516 77.3203C102.242 77.4219 101.887 77.5117 101.449 77.5898C101.98 77.6445 102.438 77.7617 102.82 77.9414C103.203 78.1211 103.504 78.3359 103.723 78.5859C103.949 78.8359 104.125 79.1523 104.25 79.5352C104.375 79.918 104.457 80.293 104.496 80.6602C104.535 81.0273 104.555 81.4648 104.555 81.9727ZM101.613 73.5586C101.613 73.543 101.613 73.5195 101.613 73.4883C101.613 73.1602 101.613 72.9297 101.613 72.7969C101.613 72.6562 101.59 72.4883 101.543 72.293C101.504 72.0898 101.461 71.957 101.414 71.8945C101.375 71.832 101.277 71.75 101.121 71.6484C100.973 71.5391 100.824 71.4766 100.676 71.4609C100.527 71.4375 100.293 71.4102 99.9727 71.3789C99.6602 71.3398 99.3477 71.3203 99.0352 71.3203C98.7227 71.3203 98.2969 71.3203 97.7578 71.3203H94.6055V76.9219H96.9609C97.9844 76.9219 98.8125 76.8945 99.4453 76.8398C100.078 76.7773 100.547 76.6758 100.852 76.5352C101.164 76.3867 101.367 76.2305 101.461 76.0664C101.562 75.9023 101.613 75.6836 101.613 75.4102V73.5586ZM102.234 81.4102C102.219 80.4805 102.184 79.8945 102.129 79.6523C102.02 79.2227 101.75 78.9297 101.32 78.7734C100.789 78.5703 99.6016 78.4648 97.7578 78.457C97.6328 78.457 97.4961 78.457 97.3477 78.457H94.6055V85.2305H99.082C99.9883 85.2305 100.672 85.1562 101.133 85.0078C101.594 84.8516 101.898 84.6211 102.047 84.3164C102.195 84.0117 102.266 83.5625 102.258 82.9688L102.234 81.4102ZM116.59 87H107.719V69.5391H110.098V85.207H116.824L116.59 87ZM125.812 87.2812C125.133 87.2812 124.527 87.2656 123.996 87.2344C123.473 87.2031 122.988 87.125 122.543 87C122.098 86.8828 121.715 86.7734 121.395 86.6719C121.082 86.5703 120.797 86.3789 120.539 86.0977C120.289 85.8086 120.082 85.5625 119.918 85.3594C119.754 85.1484 119.613 84.8047 119.496 84.3281C119.379 83.8438 119.293 83.4336 119.238 83.0977C119.184 82.7539 119.137 82.2266 119.098 81.5156C119.066 80.8047 119.047 80.1953 119.039 79.6875C119.039 79.1797 119.039 78.4453 119.039 77.4844C119.039 76.3281 119.07 75.3672 119.133 74.6016C119.195 73.8359 119.316 73.125 119.496 72.4688C119.684 71.8125 119.926 71.2969 120.223 70.9219C120.527 70.5469 120.938 70.2266 121.453 69.9609C121.977 69.6875 122.582 69.5039 123.27 69.4102C123.965 69.3086 124.812 69.2578 125.812 69.2578C126.758 69.2578 127.566 69.3047 128.238 69.3984C128.91 69.4922 129.504 69.6602 130.02 69.9023C130.543 70.1367 130.961 70.4336 131.273 70.793C131.594 71.1445 131.855 71.6094 132.059 72.1875C132.262 72.7656 132.398 73.4141 132.469 74.1328C132.547 74.8438 132.586 75.7109 132.586 76.7344C132.586 79.625 132.543 81.5273 132.457 82.4414C132.309 84.0039 131.949 85.1211 131.379 85.793C130.777 86.5117 129.754 86.9648 128.309 87.1523C127.621 87.2383 126.789 87.2812 125.812 87.2812ZM127.488 71.1094C127.043 71.0781 126.484 71.0625 125.812 71.0625C125.141 71.0625 124.582 71.0781 124.137 71.1094C123.691 71.1406 123.301 71.207 122.965 71.3086C122.637 71.4102 122.383 71.5234 122.203 71.6484C122.023 71.7734 121.875 71.9688 121.758 72.2344C121.648 72.4922 121.574 72.7578 121.535 73.0312C121.504 73.3047 121.48 73.6758 121.465 74.1445C121.441 75.5898 121.43 77.043 121.43 78.5039C121.43 80.707 121.488 82.2148 121.605 83.0273C121.793 84.2461 122.148 84.9492 122.672 85.1367C123.062 85.3633 124.109 85.4766 125.812 85.4766C127.516 85.4766 128.562 85.3633 128.953 85.1367C129.102 85.082 129.234 84.9922 129.352 84.8672C129.477 84.7422 129.578 84.5742 129.656 84.3633C129.742 84.1523 129.816 83.9414 129.879 83.7305C129.941 83.5117 129.992 83.2344 130.031 82.8984C130.07 82.5625 130.102 82.2617 130.125 81.9961C130.148 81.7227 130.164 81.3789 130.172 80.9648C130.18 80.543 130.184 80.1953 130.184 79.9219C130.191 79.6484 130.195 79.2852 130.195 78.832C130.195 77.2539 130.184 75.6914 130.16 74.1445C130.145 73.6758 130.117 73.3047 130.078 73.0312C130.047 72.7578 129.973 72.4922 129.855 72.2344C129.746 71.9688 129.602 71.7734 129.422 71.6484C129.242 71.5234 128.984 71.4102 128.648 71.3086C128.32 71.207 127.934 71.1406 127.488 71.1094ZM148.617 78.2695V85.7578C147.508 86.7734 145.262 87.2812 141.879 87.2812C141.215 87.2812 140.629 87.2539 140.121 87.1992C139.621 87.1445 139.16 87.0742 138.738 86.9883C138.324 86.9023 137.969 86.7578 137.672 86.5547C137.375 86.3438 137.113 86.1328 136.887 85.9219C136.66 85.7109 136.477 85.4062 136.336 85.0078C136.195 84.6016 136.078 84.2109 135.984 83.8359C135.898 83.4609 135.832 82.957 135.785 82.3242C135.746 81.6914 135.719 81.0859 135.703 80.5078C135.688 79.9297 135.68 79.1875 135.68 78.2812C135.68 77.5078 135.684 76.8477 135.691 76.3008C135.707 75.7539 135.734 75.1953 135.773 74.625C135.82 74.0547 135.879 73.582 135.949 73.207C136.027 72.8242 136.129 72.4414 136.254 72.0586C136.387 71.668 136.539 71.3555 136.711 71.1211C136.883 70.8789 137.098 70.6406 137.355 70.4062C137.613 70.1719 137.898 69.9922 138.211 69.8672C138.531 69.7422 138.902 69.6289 139.324 69.5273C139.746 69.4258 140.207 69.3594 140.707 69.3281C141.207 69.2891 141.773 69.2695 142.406 69.2695C142.445 69.2695 142.504 69.2695 142.582 69.2695C143.129 69.2695 143.543 69.2734 143.824 69.2812C144.105 69.2891 144.484 69.3203 144.961 69.375C145.445 69.4219 145.816 69.5 146.074 69.6094C146.332 69.7109 146.629 69.8672 146.965 70.0781C147.301 70.2812 147.551 70.5352 147.715 70.8398C147.879 71.1367 148.023 71.5156 148.148 71.9766C148.273 72.4375 148.336 72.9688 148.336 73.5703C148.336 73.7109 148.328 73.9062 148.312 74.1562L146.215 74.5547L146.086 72.2461C146.07 71.7461 145.785 71.4258 145.23 71.2852C144.676 71.1367 143.625 71.0625 142.078 71.0625C141.023 71.0625 140.227 71.1289 139.688 71.2617C139.148 71.3867 138.773 71.582 138.562 71.8477C138.352 72.1133 138.223 72.5078 138.176 73.0312C138.105 74.6328 138.07 76.2734 138.07 77.9531C138.07 79.6406 138.105 81.2812 138.176 82.875C138.215 83.7188 138.281 84.2656 138.375 84.5156C138.523 84.8984 138.863 85.1562 139.395 85.2891C139.895 85.4141 140.766 85.4766 142.008 85.4766C144.68 85.4766 146.16 85.2969 146.449 84.9375C146.441 84.1328 146.438 82.5 146.438 80.0391H143.484L143.285 78.2695H148.617Z" fill="#3294F8"/>
</g>
<defs>
<filter id="filter0_d_406_119" x="0.546875" y="69.2578" width="152.07" height="26.0234" filterUnits="userSpaceOnUse" color-interpolation-filters="sRGB">
<feFlood flood-opacity="0" result="BackgroundImageFix"/>
<feColorMatrix in="SourceAlpha" type="matrix" values="0 0 0 0 0 0 0 0 0 0 0 0 0 0 0 0 0 0 127 0" result="hardAlpha"/>
<feOffset dy="4"/>
<feGaussianBlur stdDeviation="2"/>
<feComposite in2="hardAlpha" operator="out"/>
<feColorMatrix type="matrix" values="0 0 0 0 0 0 0 0 0 0 0 0 0 0 0 0 0 0 0.25 0"/>
<feBlend mode="normal" in2="BackgroundImageFix" result="effect1_dropShadow_406_119"/>
<feBlend mode="normal" in="SourceGraphic" in2="effect1_dropShadow_406_119" result="shape"/>
</filter>
<clipPath id="clip0_406_119">
<rect width="45" height="40" fill="white" transform="translate(54.5)"/>
</clipPath>
</defs>
</svg>
